<svg width="342" height="271" viewBox="0 0 342 271" fill="none" xmlns="http://www.w3.org/2000/svg">
<path d="M319.356 156.971C319.016 158.113 318.066 158.858 316.935 158.869L247.439 159.566C246.693 159.573 245.945 159.259 245.354 158.692L182.474 98.2374C181.726 97.5178 180.735 97.2159 179.829 97.4315L103.653 115.562C102.549 115.825 101.341 115.317 100.591 114.276L44.7785 36.7413C44.1428 35.8582 43.9352 34.7256 44.2283 33.7401L53.2271 3.48651C53.6994 1.89842 55.3076 1.16131 56.819 1.84012L326.385 122.909C327.897 123.588 328.739 125.426 328.267 127.014L319.356 156.971Z" fill="#C4C4EB"/>
<path d="M248.759 189.089C238.992 225.541 214.092 250.541 193.144 244.928C172.196 239.315 163.132 205.214 172.899 168.763C182.666 132.311 207.566 107.311 228.514 112.924C249.462 118.537 258.526 152.638 248.759 189.089Z" fill="#C4C4EB"/>
<path d="M154.174 163.745C144.407 200.197 119.507 225.197 98.5592 219.584C77.6111 213.971 68.5472 179.871 78.3144 143.419C88.0816 106.967 112.981 81.9676 133.929 87.5806C154.877 93.1936 163.941 127.294 154.174 163.745Z" fill="#C4C4EB"/>
<path d="M211.303 169.477L211.793 167.646L216.152 168.813C217.094 169.066 217.885 169.021 218.523 168.679C219.162 168.336 219.591 167.756 219.81 166.936C220.017 166.164 219.934 165.454 219.561 164.807C219.203 164.165 218.552 163.717 217.61 163.465L213.228 162.291L213.738 160.39L218.188 161.582C219.209 161.856 220.043 162.295 220.693 162.899C221.347 163.489 221.783 164.177 222.003 164.965C222.238 165.757 222.238 166.593 222.002 167.474C221.757 168.386 221.335 169.126 220.736 169.694C220.152 170.266 219.429 170.644 218.569 170.828C217.712 170.996 216.774 170.943 215.754 170.67L211.303 169.477ZM207.966 176.087L212.277 159.998L214.456 160.582L210.145 176.671L207.966 176.087ZM217.239 178.571L213.329 169.796L215.585 169.631L219.998 179.311L217.239 178.571Z" fill="#F8EFEF"/>
<path d="M113.862 150.872L118.173 134.783L120.352 135.367L116.041 151.456L113.862 150.872ZM115.346 151.269L115.88 149.276L124.504 151.586L123.97 153.58L115.346 151.269Z" fill="#F8EFEF"/>
</svg>
